<?xml version="1.0" encoding="utf-8"?>
<!DOCTYPE svg PUBLIC "-//W3C//DTD SVG 1.1//EN" "http://www.w3.org/Graphics/SVG/1.1/DTD/svg11.dtd">
<?xml-stylesheet type="text/css" href="../logos.css" ?>
<svg version="1.1" id="logo" xmlns="http://www.w3.org/2000/svg" xmlns:xlink="http://www.w3.org/1999/xlink" x="0px" y="0px" viewBox="0 0 32 32" xml:space="preserve">
	<style type="text/css">
	<![CDATA[
		.st0{fill:none;}
	]]>
	</style>
	<rect class="st0" width="32" height="32"/>
	<path d="M24,0H8C3.6,0,0,3.6,0,8v16c0,4.4,3.6,8,8,8h16c4.4,0,8-3.6,8-8V8C32,3.6,28.4,0,24,0 M11,25H7V12h4V25z M9,11 c-1.1,0-2-0.9-2-2s0.9-2,2-2s2,0.9,2,2S10.1,11,9,11 M25,25h-4v-7.5c0-0.4-0.4-1.1-0.7-1.2c-0.4-0.2-1.3-0.2-1.7,0L17,17v8h-4V12h4 v0.6c1.6-0.7,3.8-0.7,5.3,0.2c1.6,0.9,2.7,2.9,2.7,4.7V25z"/>
</svg>
