<?xml version="1.0" encoding="utf-8"?>
<!DOCTYPE svg PUBLIC "-//W3C//DTD SVG 1.1//EN" "http://www.w3.org/Graphics/SVG/1.1/DTD/svg11.dtd">
<?xml-stylesheet type="text/css" href="./logo.css" ?>
<svg version="1.1" id="logo" xmlns="http://www.w3.org/2000/svg" xmlns:xlink="http://www.w3.org/1999/xlink" x="0px" y="0px" width="186px" height="424px" viewBox="0 0 186 424" xml:space="preserve">
	<path style="fill: #75338C;" class="st0" d="M175.52,78.195c-1.054-7.614-4.215-8.962-15.807-8.962h-31.791c-10.421,0-19.145-1.171-25.409-4.92 c-6.85-4.101-11.182-12.066-11.182-24.249c0-7.498,1.347-15.698,6.089-21.614c6.206-7.79,14.753-9.43,30.151-9.43h37.645 c8.724,0,9.953-1.348,10.304-9.021h2.4c-0.234,4.101-0.351,11.363-0.351,18.802c0,7.205,0.117,14.526,0.351,18.978h-2.4 c-0.351-8.142-1.581-9.723-10.304-9.723h-45.256c-16.042,0-24.414,3.808-24.414,16.576c0,16.928,12.822,21.848,31.029,21.848 h31.674c13.173,0,16.217-1.581,17.271-11.656h2.4c-0.234,3.104-0.351,8.669-0.351,12.945c0,3.807,0.117,7.966,0.351,10.426H175.52z "/>
	<path style="fill: #75338C;" class="st0" d="M153.039,119.509c-0.527,0.82-0.82,1.523-0.82,2.167c0,1.406,1.405,2.402,4.391,2.812v2.577 c-4.567-0.409-10.421-0.526-21.077-0.526v-2.519c8.84-1.23,18.559-5.155,18.559-15.405c0-4.627-2.81-8.142-7.728-8.142 c-7.201,0-11.183,7.38-16.686,14.761c-5.913,8.024-11.065,14.351-20.55,14.351c-10.948,0-17.798-10.368-17.798-22.727 c0-4.804,1.054-8.552,2.518-11.246c1.112-2.168,1.99-3.866,2.517-5.564c0.059-0.176,0.117-0.352,0.117-0.527 c0-1.348-1.698-2.343-4.274-2.929v-2.519c5.152,0.352,11.827,0.469,23.946,0.469v2.577c-12.998,1.464-22.072,6.092-22.072,16.166 c0,4.158,2.4,8.435,8.548,8.435c7.025,0,10.948-5.213,16.334-12.125c6.147-7.849,11.592-15.053,21.252-15.053 c10.655,0,16.51,9.723,16.51,20.617C156.727,111.895,154.561,117.166,153.039,119.509z"/>
	<path style="fill: #75338C;" class="st0" d="M154.97,173.658h-2.4v-14.175H104.21c-4.917,0-6.674,1.757-6.674,5.271c0,2.929,1.874,5.857,7.202,8.2 l-1.113,1.991c-7.143-2.636-12.294-7.556-12.294-16.4c0-5.389,1.347-9.313,4.04-12.008c3.513-3.455,8.372-4.334,16.744-4.334 h40.456V132.13h2.4v10.074h15.866c0.059,6.736,1.171,12.301,3.864,17.279h-19.73V173.658z"/>
	<path style="fill: #75338C;" class="st0" d="M104.152,200.555c-6.674,0-8.606,2.05-8.606,7.673h-2.518c0.117-3.046,0.468-9.781,0.468-16.049 c0-6.209-0.351-13.413-0.468-16.576h2.518c0,5.564,1.932,7.673,8.606,7.673h37.821c7.201,0,10.597-1.874,10.597-7.673h2.518 c-0.234,2.519-0.41,5.037-0.41,7.438c0,6.678,0.527,12.477,1.698,17.514H104.152z M176.75,202.02 c-5.796,0-9.309-4.276-9.309-10.896c0-6.735,3.513-10.953,9.309-10.953c5.738,0,9.25,4.218,9.25,10.953 C186,197.743,182.487,202.02,176.75,202.02z"/>
	<path style="fill: #75338C;" class="st0" d="M86.59,136.54h-2.4c-1.347-3.456-5.27-7.731-14.227-10.953L1.464,100.225c0.058-1.288,0.117-2.753,0.117-4.158 c0-1.465-0.059-2.87-0.117-4.159L76.52,61.332c5.738-2.284,7.553-5.213,7.67-7.556h2.4c-0.234,4.803-0.352,11.656-0.352,18.274 c0,7.381,0.117,14.292,0.352,18.217h-2.4c-0.234-5.564-0.996-8.435-4.45-8.435c-1.347,0-3.22,0.468-5.621,1.405l-53.687,21.204 l39.812,14.76c6.206,2.284,10.948,3.339,14.52,3.339c6.674,0,9.25-3.69,9.426-10.074h2.4c-0.234,5.389-0.352,9.957-0.352,14.936 C86.239,130.917,86.356,134.139,86.59,136.54z"/>
	<path style="fill: #75338C;" class="st0" d="M60.01,182.658c-3.63,3.514-8.431,4.275-16.803,4.275h-32.61c-3.864,0-5.328,0.645-5.328,2.578 c0,1.698,0.996,3.046,2.049,4.393l-2.049,1.23c-2.927-3.632-4.391-7.615-4.391-13.707c0-8.786,4.566-11.48,9.718-11.539 c-6.732-4.1-9.718-10.953-9.718-17.689c0-8.961,4.917-15.17,13.641-15.17c8.665,0,13.524,5.74,17.623,16.869 c3.337,8.845,5.62,15.756,10.772,15.756h9.367c6.265,0,10.714-2.694,10.714-9.781c0-2.87-0.82-6.385-2.927-8.552 c-1.464,4.275-4.567,7.087-9.426,7.087c-4.977,0-8.606-3.865-8.606-9.781c0-5.213,3.981-8.493,9.25-8.493 c4.391,0,7.728,2.812,10.011,6.735c2.401,4.276,4.099,10.134,4.099,18.217C65.396,172.817,63.991,178.792,60.01,182.658z  M37.997,169.654c-1.815-1.112-3.396-3.397-5.913-7.438c-3.103-4.218-7.025-8.142-14.227-8.142c-6.616,0-9.309,3.222-9.309,7.497 c0,2.929,1.288,5.564,4.859,8.083H37.997z"/>
	<path style="fill: #75338C;" class="st0" d="M61.708,234.797c-0.527,0.82-0.82,1.522-0.82,2.167c0,1.406,1.405,2.401,4.391,2.812v2.577 c-4.567-0.41-10.421-0.527-21.077-0.527v-2.519c8.84-1.229,18.559-5.154,18.559-15.404c0-4.628-2.81-8.142-7.728-8.142 c-7.201,0-11.183,7.38-16.686,14.76c-5.913,8.024-11.065,14.351-20.549,14.351C6.85,244.871,0,234.504,0,222.145 c0-4.803,1.054-8.552,2.518-11.246c1.112-2.167,1.991-3.865,2.518-5.564c0.059-0.176,0.117-0.351,0.117-0.526 c0-1.348-1.698-2.344-4.273-2.929v-2.519c5.152,0.351,11.826,0.468,23.945,0.468v2.577c-12.998,1.465-22.072,6.092-22.072,16.167 c0,4.158,2.4,8.435,8.548,8.435c7.026,0,10.948-5.214,16.334-12.125c6.147-7.849,11.592-15.054,21.252-15.054 c10.655,0,16.51,9.724,16.51,20.618C65.396,227.183,63.23,232.454,61.708,234.797z"/>
	<path style="fill: #75338C;" class="st0" d="M145.544,237.001h10.831c-1.171-5.037-1.698-10.836-1.698-17.514c0-2.401,0.176-4.92,0.41-7.438h-2.518 c0,5.799-3.396,7.673-10.597,7.673h-37.821c-6.674,0-8.606-2.108-8.606-7.673h-2.518c0.117,3.163,0.468,10.367,0.468,16.518 c0,5.857-0.351,12.066-0.468,14.878h2.518c0-4.745,1.932-6.443,8.606-6.443h33.43c7.904,0,13.875,5.154,13.875,11.891 c0,5.975-4.04,7.38-10.011,7.38h-37.294c-6.674,0-8.606-1.698-8.606-6.443l-3.804-0.01c0,5.799-3.396,7.674-10.597,7.674H12.822 c-6.674,0-8.606-2.109-8.606-7.674H1.698c0.117,3.163,0.468,10.31,0.468,16.576c0,6.033-0.351,12.594-0.468,15.522h2.518 c0-5.213,1.932-7.204,8.606-7.204H33.43c-0.117,2.636-0.878,4.217-3.688,5.915L8.313,292.519c-0.703,0.352-1.288,0.586-1.874,0.586 c-1.346,0-2.225-1.289-2.225-3.632H1.698c0.117,2.987,0.468,9.606,0.468,15.522c0,4.744-0.351,10.191-0.468,12.593h2.518 c0.937-2.812,3.337-4.393,6.265-6.268l33.547-20.148l8.021,7.731c4.977,4.979,8.196,9.957,9.309,14.994h2.4 c-0.234-2.812-0.41-9.488-0.41-14.057c0-3.69,0.176-9.606,0.41-14.058h-2.4c-0.292,5.33-2.634,9.312-6.381,9.312 c-2.049,0-4.508-1.229-7.26-4.041l-8.899-9.079c-1.991-1.991-2.752-4.218-2.986-7.263h57.463c-0.1,2.696-0.209,5.051-0.266,6.511 h2.518c0-5.564,1.932-7.673,8.606-7.673h32.317c8.138,0,12.529-1.113,15.573-3.749c2.811-2.46,4.684-6.384,4.684-13.237 C156.727,248.13,153.683,240.984,145.544,237.001z"/>
	<path style="fill: #75338C;" class="st0" d="M12.822,343.79c-6.674,0-8.606,2.05-8.606,7.673H1.698c0.117-3.046,0.468-9.781,0.468-16.049 c0-6.209-0.351-13.413-0.468-16.576h2.518c0,5.564,1.932,7.673,8.606,7.673h37.821c7.201,0,10.597-1.874,10.597-7.673h2.517 c-0.234,2.519-0.41,5.037-0.41,7.438c0,6.678,0.527,12.477,1.698,17.514H12.822z M85.419,345.254 c-5.796,0-9.309-4.275-9.309-10.895c0-6.735,3.513-10.953,9.309-10.953c5.737,0,9.25,4.218,9.25,10.953 C94.669,340.979,91.157,345.254,85.419,345.254z"/>
	<path style="fill: #75338C;" class="st0" d="M60.712,412.578c-3.044,2.636-7.435,3.749-15.573,3.749H12.822c-6.674,0-8.606,2.108-8.606,7.673H1.698 c0.117-3.046,0.468-9.957,0.468-15.814c0-6.15-0.351-12.652-0.468-15.581h2.518c0,4.745,1.932,6.443,8.606,6.443h37.294 c5.972,0,10.011-1.406,10.011-7.38c0-6.736-5.972-11.891-13.875-11.891h-33.43c-6.674,0-8.606,1.698-8.606,6.443H1.698 c0.117-2.812,0.468-9.021,0.468-14.878c0-6.15-0.351-13.354-0.468-16.518h2.518c0,5.564,1.932,7.673,8.606,7.673h37.821 c7.201,0,10.597-1.874,10.597-7.673h2.517c-0.234,2.519-0.41,5.037-0.41,7.438c0,6.678,0.527,12.477,1.698,17.514H54.214 c8.138,3.982,11.183,11.129,11.183,19.563C65.396,406.193,63.523,410.118,60.712,412.578z"/>
</svg>
